<?xml version="1.0" standalone="no"?>
<!DOCTYPE svg PUBLIC "-//W3C//DTD SVG 20010904//EN"
 "http://www.w3.org/TR/2001/REC-SVG-20010904/DTD/svg10.dtd">
<svg version="1.0" xmlns="http://www.w3.org/2000/svg"
 width="200.000000pt" height="200.000000pt" viewBox="0 0 200.000000 200.000000"
 preserveAspectRatio="xMidYMid meet">

<g transform="translate(0.000000,200.000000) scale(0.100000,-0.100000)"
fill="#000000" stroke="none">
<path d="M827 1985 c-393 -75 -694 -355 -798 -745 -19 -72 -23 -110 -23 -240
1 -135 4 -167 27 -254 94 -352 358 -615 714 -713 87 -24 115 -27 253 -27 135
1 168 4 254 27 352 94 615 358 713 714 24 87 27 115 27 253 -1 136 -4 168 -27
255 -78 289 -291 539 -563 660 -164 73 -405 102 -577 70z m326 -80 c209 -36
364 -121 518 -282 150 -157 233 -351 245 -573 21 -371 -184 -718 -519 -879
-382 -184 -865 -72 -1119 260 -254 332 -261 782 -18 1114 55 74 188 197 260
239 201 118 415 159 633 121z"/>
<path d="M853 1675 c-167 -47 -282 -167 -315 -329 -23 -120 16 -278 124 -494
77 -153 85 -214 45 -325 -13 -37 -22 -67 -18 -67 21 0 70 44 86 76 39 81 33
133 -34 332 -53 157 -61 191 -61 255 0 123 54 197 155 212 82 13 98 -4 111
-113 l6 -60 -38 -20 c-51 -26 -109 -87 -129 -134 -23 -57 -19 -143 11 -213 49
-115 55 -145 43 -203 -8 -39 -18 -58 -40 -74 -36 -27 -37 -38 -1 -38 82 0 205
106 243 211 20 54 39 77 39 47 0 -25 51 -123 86 -164 42 -52 119 -91 197 -100
67 -8 65 -16 33 121 -14 55 -23 101 -21 103 1 2 20 -21 40 -50 38 -52 63 -53
29 0 -58 88 -84 146 -84 187 0 61 -12 67 -95 44 -38 -10 -76 -19 -85 -18 -8 0
21 10 64 22 96 27 118 53 35 44 l-54 -6 48 15 c40 12 47 19 47 40 0 98 -100
172 -257 191 -47 5 -53 9 -63 36 -5 17 -13 54 -16 81 l-6 51 46 24 c28 14 61
44 82 72 28 38 44 51 77 59 80 19 92 25 95 46 4 28 -64 89 -137 122 -69 32
-206 40 -288 17z m295 -822 c-10 -2 -26 -2 -35 0 -10 3 -2 5 17 5 19 0 27 -2
18 -5z m186 -35 c5 -23 3 -28 -14 -28 -25 0 -40 48 -19 61 17 10 24 2 33 -33z"/>
</g>
</svg>
